<?xml version="1.0" encoding="UTF-8"?>
<svg version="1.1" viewBox="0 0 2048 2048" width="2048" height="2048" xmlns="http://www.w3.org/2000/svg">
<path transform="translate(1365,631)" d="m0 0 7 6 424 424 4 3v2h2v2h2v2h2l9 11 10 12 10 15 9 16 10 21 8 25 5 23 2 18v35l-3 22-6 25-8 23-11 23-13 21-14 18-12 13-14 14-3 1-15-15-5-4v-2h-2v-2l-4-2-5-5v-2h-2v-2l-4-2-8-8v-2l-3-1v-2h-2v-2l-4-2-34-34 1-3h2l2-4 8-9 8-13 6-12 5-15 2-11 1-18-2-18-5-17-9-16-18-22-3-2v-2l-4-2-2-4-4-2-78-78-4 2-236 236-4-2-336-336 2-4z"/>
<path transform="translate(517,631)" d="m0 0 7 6 332 332-2 4-336 336-4-2-336-336 6-7z"/>
<path transform="translate(941,207)" d="m0 0 7 6 235 235 8 7 90 90-6 7-333 333-7-6-332-332 2-4z"/>
<path transform="translate(964,1078)" d="m0 0 7 6 310 310v448l-7-6-310-310z" fill="#FF0082"/>
<path transform="translate(918,1078)" d="m0 0h1v448l-316 316h-1v-448z" fill="#FE5B00"/>
</svg>
