<?xml version="1.0" encoding="UTF-8"?>
<svg version="1.1" viewBox="0 0 2048 2048" width="2048" height="2048" xmlns="http://www.w3.org/2000/svg">
<path transform="translate(0)" d="m0 0h2048v2048h-2048z" fill="#E0DFDF"/>
<path transform="translate(1365,631)" d="m0 0 7 6 439 439 9 11 11 15 8 13 11 21 8 21 5 17 5 26 1 11v34l-3 23-6 25-8 23-9 19-13 22-9 12-9 11-9 10-15 15-3 1-28-28-3-2v-2h-2v-2l-4-2v-2h-2v-2l-4-2v-2h-2v-2l-3-1v-2h-2v-2l-4-2v-2h-2v-2l-4-2-2-4-4-2-5-5v-2h-2v-2l-4-2-11-11 1-3 5-5 7-8 8-13 6-12 5-15 2-10 1-20-2-17-4-15-8-15-10-13-13-15-25-25-7-6-4-5-8-7-44-44-4 2-236 236-4-2-336-336 2-4z"/>
<path transform="translate(517,631)" d="m0 0 7 6 332 332-2 4-336 336-4-2-142-142-7-8-186-186 2-4z"/>
<path transform="translate(941,207)" d="m0 0 7 6 236 236 8 7 87 87 1 4-338 338-7-6-332-332 2-4z"/>
<path transform="translate(964,1078)" d="m0 0 7 6 310 310v448l-7-6-310-310z" fill="#FF0082"/>
<path transform="translate(918,1078)" d="m0 0h1v448l-316 316h-1v-448z" fill="#FE5B00"/>
</svg>
